<svg xmlns="http://www.w3.org/2000/svg" xmlns:xlink="http://www.w3.org/1999/xlink" aria-hidden="true" role="img" class="iconify iconify--logos" width="31.88" height="32" preserveAspectRatio="xMidYMid meet" viewBox="0 0 256 257"><defs><linearGradient id="IconifyId1813088fe1fbc01fb466" x1="-.828%" x2="57.636%" y1="7.652%" y2="78.411%"><stop offset="0%" stop-color="#41D1FF"></stop><stop offset="100%" stop-color="#BD34FE"></stop></linearGradient><linearGradient id="IconifyId1813088fe1fbc01fb467" x1="43.376%" x2="50.316%" y1="2.242%" y2="89.03%"><stop offset="0%" stop-color="#FFBD18"></stop><stop offset="8%" stop-color="#FFBD18" stop-opacity=".9"></stop><stop offset="100%" stop-color="#F7821A" stop-opacity="0"></stop></linearGradient><linearGradient id="IconifyId1813088fe1fbc01fb468" x1="29.013%" x2="60.711%" y1="35.545%" y2="6.146%"><stop offset="0%" stop-color="#41D1FF"></stop><stop offset="100%" stop-color="#BD34FE"></stop></linearGradient><radialGradient id="IconifyId1813088fe1fbc01fb469" cx="0%" cy="0%" r="100%" fx="44.3%" fy="0%" gradientTransform="rotate(90)"><stop offset="0%" stop-color="#B818FC"></stop><stop offset="100%" stop-color="#B818FC" stop-opacity="0"></stop></radialGradient></defs><path fill="url(#IconifyId1813088fe1fbc01fb466)" d="M255.153 37.938L134.897 252.976c-2.483 4.44-8.862 4.466-11.382.048L.875 37.958c-2.746-4.814 1.37-10.646 6.827-9.67l120.605 21.516a6.537 6.537 0 0 0 2.722-.004L248.31 28.28c5.455-.998 9.574 4.832 6.842 9.658z"></path><path fill="url(#IconifyId1813088fe1fbc01fb467)" d="M185.432.063L96.44 17.501a3.268 3.268 0 0 0-2.634 3.014l-5.474 92.456a3.268 3.268 0 0 0 3.992 3.378l15.206-2.352a3.268 3.268 0 0 1 3.858 3.7l-4.636 28.493a3.268 3.268 0 0 0 4.093 3.727l9.37-2.722c2.278-.662 4.513.946 4.513 3.3l-2.712 52.146c-.508 9.744 10.905 14.8 16.518 7.105l1.014-1.384L201.6 60.082a3.268 3.268 0 0 0-3.873-3.7l-15.475 2.988a3.268 3.268 0 0 1-3.858-3.7l9.078-44.022a3.268 3.268 0 0 0-3.858-3.7z"></path></svg>